<?xml version="1.0" encoding="UTF-8"?> <svg xmlns="http://www.w3.org/2000/svg" xmlns:xlink="http://www.w3.org/1999/xlink" width="126px" height="95px" viewBox="0 0 126 95"><!-- Generator: Sketch 57.1 (83088) - https://sketch.com --><title>Software Icon</title><desc>Created with Sketch.</desc><defs><polygon id="path-1" points="0.287043902 0.434210526 93.4272878 0.434210526 93.4272878 65.5654421 0.287043902 65.5654421"></polygon><polygon id="path-3" points="0.000459574468 0.8568 107.712766 0.8568 107.712766 7.99965714 0.000459574468 7.99965714"></polygon><polygon id="path-5" points="0 0.806 40.1974 0.806 40.1974 40.9996 0 40.9996"></polygon><polygon id="path-7" points="0 0.0641565217 13.4552174 0.0641565217 13.4552174 13.5082652 0 13.5082652"></polygon></defs><g id="Welcome" stroke="none" stroke-width="1" fill="none" fill-rule="evenodd"><g id="SingleStone---HOME" transform="translate(-398.000000, -1515.000000)"><g id="Solutions" transform="translate(70.000000, 1462.000000)"><g id="Software" transform="translate(266.000000, 52.000000)"><g id="Software-Icon" transform="translate(62.000000, 0.000000)"><g id="Group-3" transform="translate(12.000000, 13.000000)"><mask id="mask-2" fill="white"><use xlink:href="#path-1"></use></mask><g id="Clip-2"></g><path d="M93.4272878,7.67070526 C93.4272878,3.67481053 90.218678,0.433863158 86.2626537,0.433863158 L7.45167805,0.433863158 C3.49450732,0.433863158 0.287043902,3.67481053 0.287043902,7.67070526 L0.287043902,65.5654421 L93.4272878,65.5654421 L93.4272878,7.67070526 Z" id="Fill-1" fill="#EE3F29" mask="url(#mask-2)"></path></g><g id="Group-6" transform="translate(4.000000, 81.000000)"><mask id="mask-4" fill="white"><use xlink:href="#path-3"></use></mask><g id="Clip-5"></g><path d="M68.2185447,0.8568 C68.2185447,2.83051429 66.611183,4.42822857 64.6281191,4.42822857 L43.085566,4.42822857 C41.1013532,4.42822857 39.4951404,2.83051429 39.4951404,0.8568 L0.000459574468,0.8568 L0.000459574468,4.42822857 C0.000459574468,6.40194286 1.60667234,7.99965714 3.59088511,7.99965714 L104.1228,7.99965714 C106.105864,7.99965714 107.713226,6.40194286 107.713226,4.42822857 L107.713226,0.8568 L68.2185447,0.8568 Z" id="Fill-4" fill="#EE3F29" mask="url(#mask-4)"></path></g><g id="Group-7" style="mix-blend-mode: multiply;"><g id="Group-3" transform="translate(0.000000, 0.194400)"><mask id="mask-6" fill="white"><use xlink:href="#path-5"></use></mask><g id="Clip-2"></g><path d="M20.0974,31.0516 C14.4934,31.0516 9.9494,26.5086 9.9494,20.9026 C9.9494,15.2976 14.4924,10.7546 20.0974,10.7546 C25.7024,10.7546 30.2454,15.2976 30.2454,20.9026 C30.2454,26.5086 25.7014,31.0516 20.0974,31.0516 M38.8214,17.5536 L35.1574,16.9636 C34.7924,15.5696 34.2444,14.2516 33.5334,13.0386 L35.7034,10.0316 C36.1514,9.4106 36.0744,8.4596 35.5354,7.9196 L33.0804,5.4636 C32.5374,4.9206 31.5914,4.8456 30.9684,5.2936 L27.9604,7.4656 C26.7464,6.7516 25.4304,6.2046 24.0354,5.8406 L23.4424,2.1756 C23.3214,1.4236 22.5974,0.8056 21.8334,0.8056 L18.3614,0.8056 C17.5974,0.8056 16.8734,1.4226 16.7514,2.1766 L16.1584,5.8416 C14.7624,6.2056 13.4464,6.7526 12.2324,7.4666 L9.2234,5.2946 C8.6044,4.8466 7.6564,4.9256 7.1154,5.4656 L4.6594,7.9196 C4.1194,8.4596 4.0414,9.4096 4.4904,10.0276 L6.6604,13.0356 C5.9494,14.2516 5.4014,15.5666 5.0354,16.9636 L1.3734,17.5556 C0.6184,17.6776 0.0024,18.4016 0.0024,19.1656 L-0.0006,22.6386 C-0.0006,23.4016 0.6154,24.1276 1.3704,24.2486 L5.0344,24.8416 C5.4004,26.2366 5.9494,27.5536 6.6604,28.7676 L4.4904,31.7756 C4.0424,32.3956 4.1184,33.3436 4.6584,33.8836 L7.1144,36.3416 C7.6564,36.8826 8.6034,36.9586 9.2254,36.5096 L12.2324,34.3386 C13.4464,35.0516 14.7644,35.5996 16.1584,35.9636 L16.7494,39.6266 C16.8714,40.3836 17.5974,40.9986 18.3614,40.9986 L21.8334,40.9996 C22.5984,40.9986 23.3224,40.3836 23.4464,39.6276 L24.0354,35.9636 C25.4334,35.5996 26.7484,35.0526 27.9634,34.3386 L30.9694,36.5096 C31.5904,36.9586 32.5404,36.8826 33.0804,36.3416 L35.5354,33.8856 C36.0784,33.3456 36.1544,32.3986 35.7064,31.7756 L33.5354,28.7696 C34.2484,27.5536 34.7954,26.2396 35.1604,24.8436 L38.8244,24.2516 C39.5784,24.1276 40.1964,23.4026 40.1974,22.6386 L40.1974,19.1666 C40.1944,18.4016 39.5774,17.6776 38.8214,17.5536" id="Fill-1" fill="#50C1B5" mask="url(#mask-6)"></path></g><g id="Group-6" transform="translate(21.000000, 77.194400)" fill="#50C1B5"><path d="M0,9.8056 C0,14.7756087 4.02963996,18.8056 8.99921541,18.8056 C13.97036,18.8056 18,14.7756087 18,9.8056 C18,4.83559128 13.97036,0.8056 8.99921541,0.8056 C4.02963996,0.8056 0,4.83559128 0,9.8056" id="Fill-4"></path></g></g><g id="Group-8" transform="translate(104.000000, 42.500000) rotate(-270.000000) translate(-104.000000, -42.500000) translate(82.000000, 20.000000)"><path d="M39.3675246,29.1541982 L16.8457835,6.63212158 C16.6691497,6.45595947 16.3834367,6.45595947 16.2074227,6.63212158 L6.63201054,16.2075243 C6.45599649,16.3836864 6.45599649,16.6696397 6.63201054,16.8458018 L29.1543715,39.3678784 C29.3303855,39.5440405 29.6160985,39.5440405 29.7927323,39.3678784 L39.3675246,29.7924757 C39.5441585,29.6163136 39.5441585,29.3303603 39.3675246,29.1541982" id="Fill-1" fill="#50C1B5" style="mix-blend-mode: multiply;"></path><g id="Group-5" transform="translate(0.500000, 0.500000)"><mask id="mask-8" fill="white"><use xlink:href="#path-7"></use></mask><g id="Clip-4" style="mix-blend-mode: multiply;"></g><path d="M13.3255652,3.39493913 L11.0301739,1.10137391 C9.6453913,-0.281582609 7.39991304,-0.281582609 6.01513043,1.10137391 L1.03843478,6.0738087 C-0.346347826,7.45798261 -0.346347826,9.70102609 1.03843478,11.0852 L3.33321739,13.3781565 C3.50669565,13.5516348 3.78730435,13.5516348 3.96078261,13.3781565 L13.3255652,4.02067826 C13.4984348,3.84841739 13.4984348,3.5678087 13.3255652,3.39493913" id="Fill-3" fill="#50C1B5" style="mix-blend-mode: multiply;" mask="url(#mask-8)"></path></g><path d="M41.2522901,32.8566834 C41.1824864,32.5108011 40.7539524,32.3799594 40.5038731,32.628922 L31.6290925,41.4776946 C31.3802272,41.7266572 31.5101228,42.1531041 31.8567133,42.2239766 L42.9700678,44.4906871 C43.280239,44.5542907 43.5539909,44.2823097 43.4908641,43.973378 L41.2522901,32.8566834 Z" id="Fill-6" fill="#50C1B5" style="mix-blend-mode: multiply;"></path></g></g></g></g></g></g></svg> 