<?xml version="1.0" encoding="UTF-8"?> <svg xmlns="http://www.w3.org/2000/svg" xmlns:xlink="http://www.w3.org/1999/xlink" width="535px" height="131px" viewBox="0 0 535 131"><!-- Generator: Sketch 57.1 (83088) - https://sketch.com --><title>ss-2c-logo</title><desc>Created with Sketch.</desc><defs><polygon id="path-1" points="0.765882644 0.903 142.283 0.903 142.283 106.94 0.765882644 106.94"></polygon></defs><g id="ss-2c-logo" stroke="none" stroke-width="1" fill="none" fill-rule="evenodd"><path d="M31.115,34.117 C21.141,31.516 11.6,29.347 11.6,19.699 C11.6,13.193 15.936,8.858 22.875,8.858 C31.006,8.858 37.294,13.086 43.907,27.179 L50.412,27.179 L50.412,2.461 L43.257,2.461 L40.98,9.724 C36.969,4.738 29.488,2.136 23.417,2.136 C9.866,2.136 0.976,12.219 0.976,22.843 C0.976,37.478 12.901,41.273 24.068,44.417 C33.825,47.236 43.039,49.621 43.039,58.402 C43.039,65.883 37.945,70.22 29.488,70.22 C19.406,70.22 14.419,65.34 6.505,50.813 L0,50.813 L0,76.615 L7.155,76.615 L9.757,69.136 C14.094,74.122 21.574,76.941 29.597,76.941 C43.473,76.941 53.664,67.075 53.664,54.608 C53.664,40.189 42.064,36.828 31.115,34.117" id="Fill-1" fill="#232652"></path><path d="M72.585,20.391 C76.813,20.391 79.632,17.464 79.632,13.128 C79.632,8.791 76.813,5.973 72.585,5.973 C68.356,5.973 65.538,9.007 65.538,13.344 C65.538,17.681 68.356,20.391 72.585,20.391" id="Fill-3" fill="#232652"></path><path d="M137.09,40.406 C137.09,30.648 131.778,24.903 123.864,24.903 C116.708,24.903 110.854,28.806 105.217,38.129 L105.217,25.553 L87.329,25.553 L87.329,32.708 L95.243,32.708 L95.243,68.051 L78.331,68.051 L78.331,25.553 L59.141,25.553 L59.141,32.708 L68.14,32.708 L68.14,68.051 L59.141,68.051 L59.141,75.206 L112.697,75.206 L112.697,68.051 L105.433,68.051 L105.433,49.187 C105.433,39.213 112.264,33.251 118.334,33.251 C120.828,33.251 122.78,34.009 124.189,35.419 C126.032,37.261 126.899,40.406 126.899,44.091 L126.899,68.051 L119.635,68.051 L119.635,75.206 L145.004,75.206 L145.004,68.051 L137.09,68.051 L137.09,40.406" id="Fill-4" fill="#232652"></path><path d="M171.9,51.681 C165.612,51.681 161.818,48.428 161.818,40.73 C161.818,33.034 164.962,29.673 171.141,29.673 C177.538,29.673 181.116,34.335 181.116,40.623 C181.116,47.994 177.972,51.681 171.9,51.681 Z M167.455,73.797 L179.598,73.797 C185.235,73.797 187.186,76.182 187.186,79.651 C187.186,84.638 180.465,87.782 170.924,87.782 C160.409,87.782 157.915,84.205 157.915,80.519 C157.915,76.074 160.951,73.797 167.455,73.797 Z M193.258,16.23 C187.404,16.23 182.634,20.35 179.381,25.878 C176.996,25.12 174.286,24.686 171.575,24.686 C160.083,24.686 151.302,30.54 151.302,40.947 C151.302,47.561 154.771,51.681 160.192,54.283 C154.988,55.367 150.869,59.486 150.869,63.173 C150.869,66.75 152.928,70.002 158.782,71.953 L158.782,72.496 C152.603,73.254 148.374,77.591 148.374,82.145 C148.374,88.65 156.939,93.312 170.274,93.312 C187.62,93.312 196.077,85.83 196.077,77.05 C196.077,70.111 191.631,65.016 180.248,65.016 L167.13,65.016 C161.709,65.016 159.867,63.281 159.867,60.678 C159.867,58.62 161.601,56.343 165.07,56.343 C167.13,56.343 169.19,56.668 171.575,56.668 C183.067,56.668 191.74,50.922 191.74,40.406 C191.74,34.985 188.596,30.54 183.717,27.721 C185.56,24.36 188.813,21.759 190.765,22.192 C190.656,22.627 190.656,23.06 190.656,23.385 C190.656,26.096 192.39,27.83 195.318,27.83 C198.136,27.83 200.305,25.445 200.305,22.409 C200.305,18.831 197.486,16.23 193.258,16.23 L193.258,16.23 Z" id="Fill-5" fill="#232652"></path><polyline id="Fill-6" fill="#232652" points="221.891 0.727 202.702 0.727 202.702 8.532 211.7 8.532 211.7 68.051 202.702 68.051 202.702 75.206 230.889 75.206 230.889 68.051 221.891 68.051 221.891 0.727"></polyline><path d="M256.661,30.431 C264.249,30.431 267.29,35.229 267.928,43.825 L244.41,46.429 C245.277,35.262 249.83,30.431 256.661,30.431 Z M259.479,69.352 C249.939,69.352 244.735,64.719 244.41,52.468 L278.189,48.57 C277.783,35.464 272.272,24.686 257.419,24.686 C243.326,24.686 233.027,36.069 233.027,50.922 C233.027,65.231 241.591,76.182 256.769,76.182 C267.718,76.182 275.524,70.761 278.344,60.137 L273.139,60.137 C270.103,66.75 265.55,69.352 259.479,69.352 L259.479,69.352 Z" id="Fill-7" fill="#232652"></path><path d="M512.931,30.431 C520.52,30.431 523.561,35.229 524.199,43.825 L500.68,46.429 C501.547,35.262 506.101,30.431 512.931,30.431 Z M529.41,60.137 C526.373,66.75 521.821,69.352 515.749,69.352 C506.209,69.352 501.005,64.719 500.68,52.468 L534.459,48.57 C534.053,35.464 528.542,24.686 513.69,24.686 C499.596,24.686 489.297,36.069 489.297,50.922 C489.297,65.231 497.862,76.182 513.039,76.182 C523.989,76.182 531.794,70.761 534.614,60.137 L529.41,60.137 L529.41,60.137 Z" id="Fill-8" fill="#232652"></path><path d="M317.03,34.117 C307.056,31.516 297.516,29.347 297.516,19.699 C297.516,13.193 301.852,8.858 308.79,8.858 C316.922,8.858 323.209,13.086 329.823,27.179 L336.328,27.179 L336.328,2.461 L329.171,2.461 L326.895,9.724 C322.884,4.738 315.403,2.136 309.332,2.136 C295.781,2.136 286.891,12.219 286.891,22.843 C286.891,37.478 298.817,41.273 309.983,44.417 C319.74,47.236 328.955,49.621 328.955,58.402 C328.955,65.883 323.86,70.22 315.403,70.22 C305.322,70.22 300.333,65.34 292.42,50.813 L285.915,50.813 L285.915,76.615 L293.071,76.615 L295.672,69.136 C300.009,74.122 307.49,76.941 315.513,76.941 C329.389,76.941 339.579,67.075 339.579,54.608 C339.579,40.189 327.979,36.828 317.03,34.117" id="Fill-9" fill="#232652"></path><path d="M363.54,69.244 C358.987,69.244 357.578,66.858 357.578,61.981 L357.578,32.708 L373.839,32.708 L373.839,26.096 L357.578,26.096 L357.578,12.652 L347.386,13.736 L347.386,62.955 C347.386,71.086 351.831,76.182 360.504,76.182 C367.443,76.182 373.189,72.278 376.008,62.738 L371.129,60.678 C368.961,66.424 366.577,69.244 363.54,69.244" id="Fill-10" fill="#232652"></path><path d="M403.7,70.328 C395.028,70.328 389.714,64.039 389.714,50.38 C389.714,36.72 394.16,30.54 402.724,30.54 C411.398,30.54 416.709,36.72 416.709,50.38 C416.709,64.039 412.157,70.328 403.7,70.328 Z M403.266,24.686 C388.413,24.686 378.439,35.527 378.439,50.597 C378.439,65.775 387.763,76.182 403.266,76.182 C418.011,76.182 427.984,65.34 427.984,50.163 C427.984,35.093 418.552,24.686 403.266,24.686 L403.266,24.686 Z" id="Fill-11" fill="#232652"></path><g id="Group-15" transform="translate(346.000000, 24.000000)"><mask id="mask-2" fill="white"><use xlink:href="#path-1"></use></mask><g id="Clip-13"></g><path d="M134.368,16.406 C134.368,6.648 129.056,0.903 121.142,0.903 C113.987,0.903 108.133,4.806 102.495,14.129 L102.495,1.553 L84.607,1.553 L84.607,8.708 L92.521,8.708 L92.521,44.051 L84.607,44.051 L84.607,51.206 L109.975,51.206 L109.975,44.051 L102.712,44.051 L102.712,25.187 C102.712,15.213 109.542,9.251 115.613,9.251 C118.106,9.251 120.058,10.009 121.467,11.419 C123.311,13.261 124.178,16.406 124.178,20.091 L124.178,44.051 L116.913,44.051 L116.913,51.206 L142.283,51.206 L142.283,44.051 L134.368,44.051 L134.368,16.406" id="Fill-12" fill="#232652" mask="url(#mask-2)"></path><path d="M109.041,65.606 C104.208,64.607 103.685,64.713 103.549,64.966 C103.146,65.721 119.902,68.055 123.862,78.072 C125.4,81.978 123.043,86.884 116.546,90.713 C96.303,102.624 49.501,101.488 52.624,98.321 C53.188,97.75 75.689,101 95.137,94.785 C104.768,91.708 111.471,85.321 111.048,80.748 C109.78,67.392 75.257,63.958 74.465,64.928 C74.053,65.433 79.051,65.985 82.703,66.855 C110.898,73.567 96.071,84.685 95.916,84.8 C95.911,84.803 95.912,84.802 95.908,84.806 C85.141,92.663 67.155,89.506 74.865,88.151 C76.268,87.852 79.356,86.998 79.56,86.961 C79.575,86.958 79.578,86.957 79.592,86.954 C82.29,86.12 85.458,84.879 87.407,82.849 C94.793,75.147 72.83,70.128 64.167,71.707 C63.745,71.784 63.761,72.397 64.185,72.465 C94.877,77.378 68.514,95.044 40.843,86.49 C29.674,83.037 27.165,74 51.428,69.499 C51.759,69.438 51.716,68.944 51.379,68.93 C40.554,68.48 15.772,75.089 25.547,84.485 C29.989,88.755 36.673,91.205 42.543,92.414 C60.864,96.188 77.911,91.851 79.065,93.435 C79.927,94.618 67.416,96.764 48.641,95.48 C13.357,93.055 -2.498,78.406 23.777,68.412 C27.912,66.84 35.107,65.403 35.038,65.092 C34.942,64.649 13.265,67.152 4.172,75.416 C0.087,79.136 -0.669,84.393 3.81,88.773 C18.986,103.567 71.041,106.766 105.302,98.444 C111.293,96.988 115.096,94.651 115.416,95.919 C116.953,102.003 74.265,105.983 74.265,105.983 C74.067,108.99 108.497,105.168 122.784,96.59 C129.251,92.706 133.723,88.785 134.347,84.617 C135.966,73.632 120.643,68.005 109.041,65.606" id="Fill-14" fill="#57BAA9" mask="url(#mask-2)"></path></g><path d="M345.866,116.823 C333.588,109.929 334.288,100.1 347.096,94.248 C347.537,94.046 347.638,93.913 347.241,93.802 C345.811,93.411 328.8,98.247 330.09,106.998 C331.396,115.721 348.976,118.897 347.8,118.006 C347.33,117.65 346.664,117.272 345.866,116.823" id="Fill-16" fill="#57BAA9"></path></g></svg> 